<svg xmlns="http://www.w3.org/2000/svg" viewBox="0 0 400 600" width="400" height="600">
  <!-- 影 -->
  <ellipse cx="200" cy="580" rx="140" ry="16" fill="rgba(0,0,0,0.15)" />
  <!-- ドレス・体 -->
  <path d="M 140 380 Q 110 490 120 570 L 280 570 Q 290 490 260 380 Z" fill="#9d174d" stroke="#831843" stroke-width="6" />
  <!-- 白いエプロン/胸当て -->
  <path d="M 160 380 L 150 570 L 250 570 L 240 380 Z" fill="#fdf2f8" stroke="#fbcfe8" stroke-width="4" />
  <!-- ケープ/フリル -->
  <path d="M 120 370 Q 200 420 280 370 Q 250 440 200 440 Q 150 440 120 370 Z" fill="#f472b6" stroke="#db2777" stroke-width="5" />
  <!-- リボン（黒） -->
  <circle cx="200" cy="410" r="10" fill="#1e293b" />
  <path d="M 195 410 L 170 425 L 180 405 Z" fill="#1e293b" />
  <path d="M 205 410 L 230 425 L 220 405 Z" fill="#1e293b" />
  <!-- 頭部ベース（輪郭） -->
  <circle cx="200" cy="270" r="125" fill="#fffbeb" stroke="#334155" stroke-width="5" />
  <!-- ツインテール（ピンク） -->
  <!-- 左ツインテール -->
  <path d="M 100 240 Q 40 300 50 430 Q 80 440 90 380 Q 100 320 120 280 Z" fill="#f472b6" stroke="#db2777" stroke-width="5" />
  <!-- 右ツインテール -->
  <path d="M 300 240 Q 360 300 350 430 Q 320 440 310 380 Q 300 320 280 280 Z" fill="#f472b6" stroke="#db2777" stroke-width="5" />
  <!-- 髪飾り（黒リボン左右） -->
  <circle cx="95" cy="245" r="10" fill="#1e293b" />
  <circle cx="305" cy="245" r="10" fill="#1e293b" />
  <!-- 頭頂部・後頭部 -->
  <path d="M 85 230 Q 130 130 200 130 Q 270 130 315 230 Q 280 185 200 185 Q 120 185 85 230 Z" fill="#f472b6" stroke="#db2777" stroke-width="5" />
  <!-- 前髪 -->
  <path d="M 115 200 Q 150 250 165 240 Q 185 255 200 230 Q 215 255 235 240 Q 250 250 285 200 Q 240 170 200 170 Q 160 170 115 200 Z" fill="#fbcfe8" stroke="#db2777" stroke-width="4" />
  <!-- チーク -->
  <ellipse cx="138" cy="300" rx="14" ry="8" fill="#fda4af" opacity="0.6" />
  <ellipse cx="262" cy="300" rx="14" ry="8" fill="#fda4af" opacity="0.6" />
</svg>
